G04*
G04 #@! TF.GenerationSoftware,Altium Limited,Altium Designer,20.1.11 (218)*
G04*
G04 Layer_Color=8388736*
%FSLAX25Y25*%
%MOIN*%
G70*
G04*
G04 #@! TF.SameCoordinates,01B7F1E6-864A-458B-A1BD-962147C64F84*
G04*
G04*
G04 #@! TF.FilePolarity,Negative*
G04*
G01*
G75*
G04:AMPARAMS|DCode=22|XSize=23.62mil|YSize=39.37mil|CornerRadius=1.18mil|HoleSize=0mil|Usage=FLASHONLY|Rotation=90.000|XOffset=0mil|YOffset=0mil|HoleType=Round|Shape=RoundedRectangle|*
%AMROUNDEDRECTD22*
21,1,0.02362,0.03701,0,0,90.0*
21,1,0.02126,0.03937,0,0,90.0*
1,1,0.00236,0.01850,0.01063*
1,1,0.00236,0.01850,-0.01063*
1,1,0.00236,-0.01850,-0.01063*
1,1,0.00236,-0.01850,0.01063*
%
%ADD22ROUNDEDRECTD22*%
%ADD29R,0.03556X0.03162*%
%ADD30R,0.07800X0.03800*%
%ADD31R,0.02756X0.04921*%
%ADD32R,0.01575X0.04921*%
G04:AMPARAMS|DCode=33|XSize=31.62mil|YSize=35.56mil|CornerRadius=0mil|HoleSize=0mil|Usage=FLASHONLY|Rotation=145.000|XOffset=0mil|YOffset=0mil|HoleType=Round|Shape=Rectangle|*
%AMROTATEDRECTD33*
4,1,4,0.02315,0.00550,0.00275,-0.02363,-0.02315,-0.00550,-0.00275,0.02363,0.02315,0.00550,0.0*
%
%ADD33ROTATEDRECTD33*%

%ADD34R,0.04737X0.03950*%
%ADD35R,0.04343X0.05524*%
%ADD36R,0.04343X0.05524*%
%ADD37R,0.03162X0.03556*%
%ADD38R,0.01981X0.03950*%
%ADD39R,0.03950X0.01981*%
%ADD40R,0.15564X0.15564*%
%ADD41R,0.05524X0.03162*%
%ADD42R,0.03950X0.04737*%
%ADD43R,0.04737X0.03162*%
%ADD44R,0.05131X0.05918*%
G04:AMPARAMS|DCode=45|XSize=31.62mil|YSize=35.56mil|CornerRadius=0mil|HoleSize=0mil|Usage=FLASHONLY|Rotation=55.000|XOffset=0mil|YOffset=0mil|HoleType=Round|Shape=Rectangle|*
%AMROTATEDRECTD45*
4,1,4,0.00550,-0.02315,-0.02363,-0.00275,-0.00550,0.02315,0.02363,0.00275,0.00550,-0.02315,0.0*
%
%ADD45ROTATEDRECTD45*%

%ADD46R,0.06706X0.06706*%
%ADD47O,0.04737X0.07887*%
%ADD48C,0.02953*%
%ADD49O,0.04737X0.09068*%
%ADD50C,0.01981*%
%ADD51C,0.02300*%
%ADD52C,0.02600*%
D22*
X60342Y56291D02*
D03*
X68216Y60031D02*
D03*
Y52551D02*
D03*
D29*
X67278Y18618D02*
D03*
Y14681D02*
D03*
X11471Y108379D02*
D03*
Y112316D02*
D03*
X74122Y71764D02*
D03*
Y67827D02*
D03*
X42854Y117670D02*
D03*
Y113733D02*
D03*
X37142Y113971D02*
D03*
Y117908D02*
D03*
X16865Y96982D02*
D03*
Y100919D02*
D03*
X25065Y78519D02*
D03*
Y82456D02*
D03*
D30*
X77000Y24000D02*
D03*
Y33000D02*
D03*
D31*
X54781Y33360D02*
D03*
X51631D02*
D03*
X29584D02*
D03*
X32734D02*
D03*
D32*
X49072D02*
D03*
X47104D02*
D03*
X35293D02*
D03*
X37261D02*
D03*
X39230D02*
D03*
X45135D02*
D03*
X43167D02*
D03*
X41198D02*
D03*
D33*
X65616Y118978D02*
D03*
X56851Y106389D02*
D03*
X53626Y108647D02*
D03*
X62391Y121236D02*
D03*
D34*
X74866Y41996D02*
D03*
Y47902D02*
D03*
X11332Y96697D02*
D03*
Y102603D02*
D03*
X53836Y58525D02*
D03*
Y52620D02*
D03*
X68151Y66014D02*
D03*
Y71920D02*
D03*
X30869Y55068D02*
D03*
Y60974D02*
D03*
X74835Y54380D02*
D03*
Y60285D02*
D03*
X31368Y114643D02*
D03*
Y120548D02*
D03*
X25018Y114798D02*
D03*
Y120703D02*
D03*
D35*
X69300Y46800D02*
D03*
D36*
X57300D02*
D03*
D37*
X21618Y53500D02*
D03*
X17681D02*
D03*
Y58000D02*
D03*
X21618D02*
D03*
X40465Y47573D02*
D03*
X36528D02*
D03*
X46278Y47653D02*
D03*
X50215D02*
D03*
X33142Y68073D02*
D03*
X29205D02*
D03*
X17681Y42222D02*
D03*
X21618D02*
D03*
X67830Y103830D02*
D03*
X71767D02*
D03*
X56830Y96256D02*
D03*
X60767D02*
D03*
X21618Y68278D02*
D03*
X17681D02*
D03*
X18118Y79778D02*
D03*
X14181D02*
D03*
X75355Y80115D02*
D03*
X71418D02*
D03*
X17681Y63122D02*
D03*
X21618D02*
D03*
X14181Y74722D02*
D03*
X18118D02*
D03*
X60559Y87014D02*
D03*
X56622D02*
D03*
X38946Y108418D02*
D03*
X42883D02*
D03*
X33142Y74002D02*
D03*
X29205D02*
D03*
X29587Y108573D02*
D03*
X33524D02*
D03*
X18018Y84656D02*
D03*
X14081D02*
D03*
X17681Y47722D02*
D03*
X21618D02*
D03*
X14081Y90666D02*
D03*
X18018D02*
D03*
D38*
X47072Y101181D02*
D03*
X45104D02*
D03*
X43135D02*
D03*
X41167D02*
D03*
X39198D02*
D03*
X37230D02*
D03*
X35261D02*
D03*
X33293D02*
D03*
Y81496D02*
D03*
X35261D02*
D03*
X37230D02*
D03*
X39198D02*
D03*
X41167D02*
D03*
X43135D02*
D03*
X45104D02*
D03*
X47072D02*
D03*
D39*
X30340Y98228D02*
D03*
Y96260D02*
D03*
Y94291D02*
D03*
Y92323D02*
D03*
Y90354D02*
D03*
Y88386D02*
D03*
Y86417D02*
D03*
Y84449D02*
D03*
X50025D02*
D03*
Y86417D02*
D03*
Y88386D02*
D03*
Y90354D02*
D03*
Y92323D02*
D03*
Y94291D02*
D03*
Y96260D02*
D03*
Y98228D02*
D03*
D40*
X40183Y91339D02*
D03*
D41*
X47105Y60547D02*
D03*
Y56807D02*
D03*
Y53067D02*
D03*
X37262D02*
D03*
Y56807D02*
D03*
Y60547D02*
D03*
D42*
X39659Y67632D02*
D03*
X45565D02*
D03*
X62897Y78869D02*
D03*
X56992D02*
D03*
X45752Y73869D02*
D03*
X39847D02*
D03*
D43*
X62005Y73492D02*
D03*
Y69752D02*
D03*
Y66012D02*
D03*
X51768Y73492D02*
D03*
Y66012D02*
D03*
D44*
X66811Y87392D02*
D03*
X74292D02*
D03*
X66811Y96447D02*
D03*
X74292D02*
D03*
D45*
X56914Y113146D02*
D03*
X59172Y116371D02*
D03*
D46*
X23106Y108394D02*
D03*
Y97394D02*
D03*
D47*
X59190Y14640D02*
D03*
X25175D02*
D03*
D48*
X53561Y29128D02*
D03*
X30805D02*
D03*
D49*
X25175Y31097D02*
D03*
X59190D02*
D03*
D50*
X41167Y36833D02*
D03*
X46000Y78000D02*
D03*
X66833Y23869D02*
D03*
X36259Y78250D02*
D03*
X22505Y73500D02*
D03*
X17333Y22369D02*
D03*
X43500Y29500D02*
D03*
X41224Y29404D02*
D03*
X67340Y29869D02*
D03*
X10384Y42500D02*
D03*
X17333Y28369D02*
D03*
X41341Y78333D02*
D03*
X43167Y36833D02*
D03*
X51000Y123000D02*
D03*
X12500Y119000D02*
D03*
X17500Y123000D02*
D03*
X13000D02*
D03*
X8500D02*
D03*
X47500Y115500D02*
D03*
X48000Y110500D02*
D03*
X51000Y115500D02*
D03*
Y119500D02*
D03*
X74500Y109500D02*
D03*
X70000Y110000D02*
D03*
X64500D02*
D03*
X69500Y113500D02*
D03*
X74500D02*
D03*
Y118000D02*
D03*
Y123000D02*
D03*
X58000D02*
D03*
X46500D02*
D03*
X39000Y105449D02*
D03*
X41167Y104333D02*
D03*
D51*
X13926Y65028D02*
D03*
X21362Y88000D02*
D03*
X79500Y24000D02*
D03*
X74500D02*
D03*
Y33000D02*
D03*
X79500D02*
D03*
X37142Y117908D02*
D03*
X40117Y117670D02*
D03*
X21618Y53500D02*
D03*
X11500Y102500D02*
D03*
X40435Y90126D02*
D03*
X45000Y90345D02*
D03*
X35500Y86000D02*
D03*
X45000Y85500D02*
D03*
X35500Y90000D02*
D03*
X45000Y95500D02*
D03*
X40000D02*
D03*
X35000D02*
D03*
X27306Y6500D02*
D03*
X53836Y62336D02*
D03*
X53250Y101000D02*
D03*
X74866Y50376D02*
D03*
D52*
X13684Y61500D02*
D03*
X14181Y74700D02*
D03*
X51538Y37350D02*
D03*
X29190Y64493D02*
D03*
X53836Y47653D02*
D03*
X47105Y60547D02*
D03*
X14081Y87661D02*
D03*
X71000Y42000D02*
D03*
X69000D02*
D03*
X67000Y124500D02*
D03*
X75000Y64000D02*
D03*
X74500Y75000D02*
D03*
X45608Y70829D02*
D03*
X56992Y82757D02*
D03*
X16865Y107663D02*
D03*
Y111461D02*
D03*
X20202Y114798D02*
D03*
X74000Y101500D02*
D03*
X69022Y82512D02*
D03*
X67000Y79000D02*
D03*
X68500Y76000D02*
D03*
M02*
