G04*
G04 #@! TF.GenerationSoftware,Altium Limited,Altium Designer,20.1.11 (218)*
G04*
G04 Layer_Color=8421504*
%FSLAX25Y25*%
%MOIN*%
G70*
G04*
G04 #@! TF.SameCoordinates,01B7F1E6-864A-458B-A1BD-962147C64F84*
G04*
G04*
G04 #@! TF.FilePolarity,Positive*
G04*
G01*
G75*
%ADD10R,0.02756X0.02362*%
%ADD11R,0.07000X0.03000*%
%ADD12R,0.02362X0.04528*%
%ADD13R,0.01181X0.04528*%
G04:AMPARAMS|DCode=14|XSize=23.62mil|YSize=27.56mil|CornerRadius=0mil|HoleSize=0mil|Usage=FLASHONLY|Rotation=145.000|XOffset=0mil|YOffset=0mil|HoleType=Round|Shape=Rectangle|*
%AMROTATEDRECTD14*
4,1,4,0.01758,0.00451,0.00177,-0.01806,-0.01758,-0.00451,-0.00177,0.01806,0.01758,0.00451,0.0*
%
%ADD14ROTATEDRECTD14*%

%ADD15R,0.03937X0.03150*%
%ADD16R,0.03543X0.04724*%
%ADD17R,0.03543X0.04724*%
%ADD18R,0.02362X0.02756*%
%ADD19R,0.01181X0.03150*%
%ADD20R,0.03150X0.01181*%
%ADD21R,0.14764X0.14764*%
G04:AMPARAMS|DCode=22|XSize=23.62mil|YSize=39.37mil|CornerRadius=1.18mil|HoleSize=0mil|Usage=FLASHONLY|Rotation=90.000|XOffset=0mil|YOffset=0mil|HoleType=Round|Shape=RoundedRectangle|*
%AMROUNDEDRECTD22*
21,1,0.02362,0.03701,0,0,90.0*
21,1,0.02126,0.03937,0,0,90.0*
1,1,0.00236,0.01850,0.01063*
1,1,0.00236,0.01850,-0.01063*
1,1,0.00236,-0.01850,-0.01063*
1,1,0.00236,-0.01850,0.01063*
%
%ADD22ROUNDEDRECTD22*%
%ADD23R,0.04724X0.02362*%
%ADD24R,0.03150X0.03937*%
%ADD25R,0.03937X0.02362*%
%ADD26R,0.04331X0.05118*%
G04:AMPARAMS|DCode=27|XSize=23.62mil|YSize=27.56mil|CornerRadius=0mil|HoleSize=0mil|Usage=FLASHONLY|Rotation=55.000|XOffset=0mil|YOffset=0mil|HoleType=Round|Shape=Rectangle|*
%AMROTATEDRECTD27*
4,1,4,0.00451,-0.01758,-0.01806,-0.00177,-0.00451,0.01758,0.01806,0.00177,0.00451,-0.01758,0.0*
%
%ADD27ROTATEDRECTD27*%

%ADD28R,0.05906X0.05906*%
D10*
X67278Y18618D02*
D03*
Y14681D02*
D03*
X11471Y108379D02*
D03*
Y112316D02*
D03*
X74122Y71764D02*
D03*
Y67827D02*
D03*
X42854Y117670D02*
D03*
Y113733D02*
D03*
X37142Y113971D02*
D03*
Y117908D02*
D03*
X16865Y96982D02*
D03*
Y100919D02*
D03*
X25065Y78519D02*
D03*
Y82456D02*
D03*
D11*
X77000Y24000D02*
D03*
Y33000D02*
D03*
D12*
X54781Y33360D02*
D03*
X51631D02*
D03*
X29584D02*
D03*
X32734D02*
D03*
D13*
X49072D02*
D03*
X47104D02*
D03*
X35293D02*
D03*
X37261D02*
D03*
X39230D02*
D03*
X45135D02*
D03*
X43167D02*
D03*
X41198D02*
D03*
D14*
X65616Y118978D02*
D03*
X56851Y106389D02*
D03*
X53626Y108647D02*
D03*
X62391Y121236D02*
D03*
D15*
X74866Y41996D02*
D03*
Y47902D02*
D03*
X11332Y96697D02*
D03*
Y102603D02*
D03*
X53836Y58525D02*
D03*
Y52620D02*
D03*
X68151Y66014D02*
D03*
Y71920D02*
D03*
X30869Y55068D02*
D03*
Y60974D02*
D03*
X74835Y54380D02*
D03*
Y60285D02*
D03*
X31368Y114643D02*
D03*
Y120548D02*
D03*
X25018Y114798D02*
D03*
Y120703D02*
D03*
D16*
X69300Y46800D02*
D03*
D17*
X57300D02*
D03*
D18*
X21618Y53500D02*
D03*
X17681D02*
D03*
Y58000D02*
D03*
X21618D02*
D03*
X40465Y47573D02*
D03*
X36528D02*
D03*
X46278Y47653D02*
D03*
X50215D02*
D03*
X33142Y68073D02*
D03*
X29205D02*
D03*
X17681Y42222D02*
D03*
X21618D02*
D03*
X67830Y103830D02*
D03*
X71767D02*
D03*
X56830Y96256D02*
D03*
X60767D02*
D03*
X21618Y68278D02*
D03*
X17681D02*
D03*
X18118Y79778D02*
D03*
X14181D02*
D03*
X75355Y80115D02*
D03*
X71418D02*
D03*
X17681Y63122D02*
D03*
X21618D02*
D03*
X14181Y74722D02*
D03*
X18118D02*
D03*
X60559Y87014D02*
D03*
X56622D02*
D03*
X38946Y108418D02*
D03*
X42883D02*
D03*
X33142Y74002D02*
D03*
X29205D02*
D03*
X29587Y108573D02*
D03*
X33524D02*
D03*
X18018Y84656D02*
D03*
X14081D02*
D03*
X17681Y47722D02*
D03*
X21618D02*
D03*
X14081Y90666D02*
D03*
X18018D02*
D03*
D19*
X47072Y101181D02*
D03*
X45104D02*
D03*
X43135D02*
D03*
X41167D02*
D03*
X39198D02*
D03*
X37230D02*
D03*
X35261D02*
D03*
X33293D02*
D03*
Y81496D02*
D03*
X35261D02*
D03*
X37230D02*
D03*
X39198D02*
D03*
X41167D02*
D03*
X43135D02*
D03*
X45104D02*
D03*
X47072D02*
D03*
D20*
X30340Y98228D02*
D03*
Y96260D02*
D03*
Y94291D02*
D03*
Y92323D02*
D03*
Y90354D02*
D03*
Y88386D02*
D03*
Y86417D02*
D03*
Y84449D02*
D03*
X50025D02*
D03*
Y86417D02*
D03*
Y88386D02*
D03*
Y90354D02*
D03*
Y92323D02*
D03*
Y94291D02*
D03*
Y96260D02*
D03*
Y98228D02*
D03*
D21*
X40183Y91339D02*
D03*
D22*
X60342Y56291D02*
D03*
X68216Y60031D02*
D03*
Y52551D02*
D03*
D23*
X47105Y60547D02*
D03*
Y56807D02*
D03*
Y53067D02*
D03*
X37262D02*
D03*
Y56807D02*
D03*
Y60547D02*
D03*
D24*
X39659Y67632D02*
D03*
X45565D02*
D03*
X62897Y78869D02*
D03*
X56992D02*
D03*
X45752Y73869D02*
D03*
X39847D02*
D03*
D25*
X62005Y73492D02*
D03*
Y69752D02*
D03*
Y66012D02*
D03*
X51768Y73492D02*
D03*
Y66012D02*
D03*
D26*
X66811Y87392D02*
D03*
X74292D02*
D03*
X66811Y96447D02*
D03*
X74292D02*
D03*
D27*
X56914Y113146D02*
D03*
X59172Y116371D02*
D03*
D28*
X23106Y108394D02*
D03*
Y97394D02*
D03*
M02*
