G04*
G04 #@! TF.GenerationSoftware,Altium Limited,Altium Designer,20.1.11 (218)*
G04*
G04 Layer_Color=255*
%FSLAX25Y25*%
%MOIN*%
G70*
G04*
G04 #@! TF.SameCoordinates,01B7F1E6-864A-458B-A1BD-962147C64F84*
G04*
G04*
G04 #@! TF.FilePolarity,Positive*
G04*
G01*
G75*
%ADD15R,0.03937X0.03150*%
%ADD61O,0.03937X0.07087*%
%ADD62C,0.02559*%
%ADD63O,0.03937X0.08268*%
%ADD67R,0.04724X0.03150*%
%ADD68R,0.01575X0.03937*%
%ADD69R,0.12205X0.09055*%
%ADD70R,0.04331X0.01181*%
D15*
X66870Y23958D02*
D03*
Y29864D02*
D03*
X17630Y28492D02*
D03*
Y22587D02*
D03*
D61*
X59190Y14640D02*
D03*
X25175D02*
D03*
D62*
X53561Y29128D02*
D03*
X30805D02*
D03*
D63*
X25175Y31097D02*
D03*
X59190D02*
D03*
D67*
X27306Y6500D02*
D03*
X54865D02*
D03*
X27135Y88345D02*
D03*
X54694D02*
D03*
X54865Y23200D02*
D03*
X27306D02*
D03*
D68*
X44771Y41952D02*
D03*
X42212D02*
D03*
X39653D02*
D03*
Y49433D02*
D03*
X42212D02*
D03*
X44771D02*
D03*
D69*
X12752Y53780D02*
D03*
X12750Y77200D02*
D03*
D70*
X19850Y70437D02*
D03*
Y68468D02*
D03*
Y66500D02*
D03*
Y64531D02*
D03*
Y62563D02*
D03*
Y60594D02*
D03*
M02*
