G04*
G04 #@! TF.GenerationSoftware,Altium Limited,Altium Designer,20.1.11 (218)*
G04*
G04 Layer_Color=16711935*
%FSLAX25Y25*%
%MOIN*%
G70*
G04*
G04 #@! TF.SameCoordinates,01B7F1E6-864A-458B-A1BD-962147C64F84*
G04*
G04*
G04 #@! TF.FilePolarity,Positive*
G04*
G01*
G75*
%ADD55C,0.01000*%
%ADD58C,0.00787*%
%ADD75C,0.00689*%
%ADD76C,0.00394*%
%ADD77C,0.00591*%
D55*
X67252Y96447D02*
X66591Y96828D01*
Y96065D01*
X67252Y96447D01*
D58*
X21513Y3331D02*
Y12189D01*
Y3331D02*
X62852D01*
Y36795D01*
X21513D02*
X62852D01*
X21513Y12189D02*
Y36795D01*
X57586Y49992D02*
Y62590D01*
X70972D01*
Y49992D02*
Y62590D01*
X57586Y49992D02*
X70972D01*
D75*
X64522Y12122D02*
X70034D01*
X64522D02*
Y21177D01*
X70034D01*
Y12122D02*
Y21177D01*
X63622Y21005D02*
Y32816D01*
X70118D01*
Y21005D02*
Y32816D01*
X63622Y21005D02*
X70118D01*
X20878Y19634D02*
Y31445D01*
X14382Y19634D02*
X20878D01*
X14382D02*
Y31445D01*
X20878D01*
X71618Y50854D02*
X78114D01*
Y39043D02*
Y50854D01*
X71618Y39043D02*
X78114D01*
X71618D02*
Y50854D01*
X15122Y56256D02*
X24177D01*
X15122Y50744D02*
Y56256D01*
Y50744D02*
X24177D01*
Y56256D01*
X15122Y55244D02*
X24177D01*
Y60756D01*
X15122D02*
X24177D01*
X15122Y55244D02*
Y60756D01*
X14581Y93744D02*
Y105555D01*
X8084D02*
X14581D01*
X8084Y93744D02*
Y105555D01*
Y93744D02*
X14581D01*
X14227Y105820D02*
Y114875D01*
X8715D02*
X14227D01*
X8715Y105820D02*
Y114875D01*
Y105820D02*
X14227D01*
X33968Y50329D02*
X43024D01*
X33968Y44817D02*
Y50329D01*
Y44817D02*
X43024D01*
Y50329D01*
X50588Y49667D02*
Y61478D01*
Y49667D02*
X57084D01*
Y61478D01*
X50588D02*
X57084D01*
X36706Y64384D02*
X48517D01*
Y70880D01*
X36706D02*
X48517D01*
X36706Y64384D02*
Y70880D01*
X71399Y63061D02*
Y74872D01*
X64903D02*
X71399D01*
X64903Y63061D02*
Y74872D01*
Y63061D02*
X71399D01*
X43719Y44897D02*
X52774D01*
Y50409D01*
X43719D02*
X52774D01*
X43719Y44897D02*
Y50409D01*
X34117Y52116D02*
Y63927D01*
X27621D02*
X34117D01*
X27621Y52116D02*
Y63927D01*
Y52116D02*
X34117D01*
X71366Y65268D02*
Y74323D01*
Y65268D02*
X76878D01*
Y74323D01*
X71366D02*
X76878D01*
X78084Y51427D02*
Y63238D01*
X71588D02*
X78084D01*
X71588Y51427D02*
Y63238D01*
Y51427D02*
X78084D01*
X26646Y70829D02*
X35701D01*
X26646Y65317D02*
Y70829D01*
Y65317D02*
X35701D01*
Y70829D01*
X15122Y39466D02*
X24177D01*
Y44978D01*
X15122D02*
X24177D01*
X15122Y39466D02*
Y44978D01*
X65271Y101074D02*
X74326D01*
Y106586D01*
X65271D02*
X74326D01*
X65271Y101074D02*
Y106586D01*
X54271Y93500D02*
X63326D01*
Y99011D01*
X54271D02*
X63326D01*
X54271Y93500D02*
Y99011D01*
X64449Y100679D02*
X78042D01*
X63071Y99301D02*
X64449Y100679D01*
X63071Y83268D02*
Y99301D01*
Y83268D02*
X78042D01*
Y90059D02*
Y100679D01*
Y83268D02*
Y93799D01*
X15122Y71034D02*
X24177D01*
X15122Y65522D02*
Y71034D01*
Y65522D02*
X24177D01*
Y71034D01*
X11622Y82534D02*
X20677D01*
X11622Y77022D02*
Y82534D01*
Y77022D02*
X20677D01*
Y82534D01*
X68859Y82872D02*
X77914D01*
X68859Y77360D02*
Y82872D01*
Y77360D02*
X77914D01*
Y82872D01*
X15122Y60366D02*
X24177D01*
Y65878D01*
X15122D02*
X24177D01*
X15122Y60366D02*
Y65878D01*
X11622Y71966D02*
X20677D01*
Y77478D01*
X11622D02*
X20677D01*
X11622Y71966D02*
Y77478D01*
X54063Y89770D02*
X63118D01*
X54063Y84258D02*
Y89770D01*
Y84258D02*
X63118D01*
Y89770D01*
X54039Y82117D02*
X65850D01*
X54039Y75621D02*
Y82117D01*
Y75621D02*
X65850D01*
Y82117D01*
X57704Y109469D02*
X62898Y116886D01*
X58383Y120048D02*
X62898Y116886D01*
X53189Y112630D02*
X58383Y120048D01*
X53189Y112630D02*
X57704Y109469D01*
X53110Y112372D02*
X60528Y107178D01*
X49949Y107857D02*
X53110Y112372D01*
X49949Y107857D02*
X57366Y102663D01*
X60528Y107178D01*
X61876Y124962D02*
X69293Y119768D01*
X58714Y120447D02*
X61876Y124962D01*
X58714Y120447D02*
X66132Y115253D01*
X69293Y119768D01*
X36894Y77117D02*
X48705D01*
X36894Y70621D02*
Y77117D01*
Y70621D02*
X48705D01*
Y77117D01*
X40098Y111174D02*
Y120229D01*
Y111174D02*
X45610D01*
Y120229D01*
X40098D02*
X45610D01*
X36387Y105662D02*
X45442D01*
Y111173D01*
X36387D02*
X45442D01*
X36387Y105662D02*
Y111173D01*
X39898Y111412D02*
Y120467D01*
X34386D02*
X39898D01*
X34386Y111412D02*
Y120467D01*
Y111412D02*
X39898D01*
X34617Y111690D02*
Y123501D01*
X28120D02*
X34617D01*
X28120Y111690D02*
Y123501D01*
Y111690D02*
X34617D01*
X28266Y111845D02*
Y123656D01*
X21770D02*
X28266D01*
X21770Y111845D02*
Y123656D01*
Y111845D02*
X28266D01*
X26646Y76758D02*
X35701D01*
X26646Y71246D02*
Y76758D01*
Y71246D02*
X35701D01*
Y76758D01*
X19621Y94423D02*
Y103478D01*
X14109D02*
X19621D01*
X14109Y94423D02*
Y103478D01*
Y94423D02*
X19621D01*
X27028Y105817D02*
X36083D01*
Y111329D01*
X27028D02*
X36083D01*
X27028Y105817D02*
Y111329D01*
X27821Y75960D02*
Y85015D01*
X22309D02*
X27821D01*
X22309Y75960D02*
Y85015D01*
Y75960D02*
X27821D01*
X11522Y87412D02*
X20577D01*
X11522Y81900D02*
Y87412D01*
Y81900D02*
X20577D01*
Y87412D01*
X15122Y44966D02*
X24177D01*
Y50478D01*
X15122D02*
X24177D01*
X15122Y44966D02*
Y50478D01*
X11522Y87910D02*
X20577D01*
Y93422D01*
X11522D02*
X20577D01*
X11522Y87910D02*
Y93422D01*
X42183Y25968D02*
X40871D01*
X41527D01*
Y22688D01*
X40871Y22032D01*
X40215D01*
X39559Y22688D01*
X43495Y22032D02*
X44807D01*
X44151D01*
Y25968D01*
X43495Y25312D01*
X65591Y56291D02*
X62967D01*
X62311Y55635D01*
Y54324D01*
X62967Y53667D01*
X65591D01*
X66247Y54324D01*
Y55635D01*
X64935Y54979D02*
X66247Y56291D01*
Y55635D02*
X65591Y56291D01*
X66247Y57603D02*
Y58915D01*
Y58259D01*
X62311D01*
X62967Y57603D01*
D76*
X46149Y43232D02*
Y48153D01*
X38275D02*
X46149D01*
X38275Y43232D02*
Y48153D01*
Y43232D02*
X46149D01*
X43590D02*
X46149Y45791D01*
X50025Y81496D02*
Y101181D01*
X30340Y81496D02*
X50025D01*
X30340D02*
Y101181D01*
X50025D01*
X48057D02*
X50025Y99213D01*
X39034Y58776D02*
X42774Y62516D01*
X39034Y51098D02*
Y62516D01*
Y51098D02*
X45333D01*
Y62516D01*
X39034D02*
X45333D01*
X71201Y33342D02*
Y34654D01*
X71857Y33998D02*
X70545D01*
X13299Y19109D02*
Y17797D01*
X12643Y18453D02*
X13955D01*
D77*
X69246Y13370D02*
X65310D01*
Y15338D01*
X65966Y15994D01*
X67278D01*
X67934Y15338D01*
Y13370D01*
Y14682D02*
X69246Y15994D01*
X65310Y19929D02*
Y17306D01*
X67278D01*
X66622Y18618D01*
Y19273D01*
X67278Y19929D01*
X68590D01*
X69246Y19273D01*
Y17962D01*
X68590Y17306D01*
X68838Y23631D02*
X64902D01*
Y25599D01*
X65558Y26255D01*
X68182D01*
X68838Y25599D01*
Y23631D01*
X64902Y30191D02*
Y27567D01*
X67526Y30191D01*
X68182D01*
X68838Y29535D01*
Y28223D01*
X68182Y27567D01*
X15662Y28819D02*
X19598D01*
Y26851D01*
X18942Y26195D01*
X16318D01*
X15662Y26851D01*
Y28819D01*
X16318Y24883D02*
X15662Y24227D01*
Y22916D01*
X16318Y22260D01*
X16974D01*
X17630Y22916D01*
Y23572D01*
Y22916D01*
X18286Y22260D01*
X18942D01*
X19598Y22916D01*
Y24227D01*
X18942Y24883D01*
X76178Y44949D02*
X76833Y45605D01*
Y46917D01*
X76178Y47573D01*
X73554D01*
X72898Y46917D01*
Y45605D01*
X73554Y44949D01*
X72898Y43637D02*
Y42325D01*
Y42981D01*
X76833D01*
X76178Y43637D01*
X24569Y55468D02*
Y51532D01*
X22601D01*
X21946Y52188D01*
Y53500D01*
X22601Y54156D01*
X24569D01*
X23257D02*
X21946Y55468D01*
X20633D02*
X19322D01*
X19978D01*
Y51532D01*
X20633Y52188D01*
X14730Y51532D02*
X17354D01*
Y53500D01*
X16042Y52844D01*
X15386D01*
X14730Y53500D01*
Y54812D01*
X15386Y55468D01*
X16698D01*
X17354Y54812D01*
X17026Y59812D02*
X16370Y60468D01*
X15058D01*
X14402Y59812D01*
Y57188D01*
X15058Y56532D01*
X16370D01*
X17026Y57188D01*
X20962Y56532D02*
X18338D01*
X20962Y59156D01*
Y59812D01*
X20306Y60468D01*
X18994D01*
X18338Y59812D01*
X22273D02*
X22929Y60468D01*
X24241D01*
X24897Y59812D01*
Y59156D01*
X24241Y58500D01*
X23585D01*
X24241D01*
X24897Y57844D01*
Y57188D01*
X24241Y56532D01*
X22929D01*
X22273Y57188D01*
X10021Y97354D02*
X9365Y96698D01*
Y95386D01*
X10021Y94730D01*
X12644D01*
X13300Y95386D01*
Y96698D01*
X12644Y97354D01*
X13300Y98666D02*
Y99978D01*
Y99322D01*
X9365D01*
X10021Y98666D01*
Y101946D02*
X9365Y102602D01*
Y103913D01*
X10021Y104569D01*
X10677D01*
X11332Y103913D01*
Y103258D01*
Y103913D01*
X11988Y104569D01*
X12644D01*
X13300Y103913D01*
Y102602D01*
X12644Y101946D01*
X13439Y107068D02*
X9503D01*
Y109035D01*
X10159Y109691D01*
X11471D01*
X12127Y109035D01*
Y107068D01*
Y108379D02*
X13439Y109691D01*
X12783Y111003D02*
X13439Y111659D01*
Y112971D01*
X12783Y113627D01*
X10159D01*
X9503Y112971D01*
Y111659D01*
X10159Y111003D01*
X10815D01*
X11471Y111659D01*
Y113627D01*
X41120Y49541D02*
Y45605D01*
X39152D01*
X38496Y46261D01*
Y47573D01*
X39152Y48229D01*
X41120D01*
X39808D02*
X38496Y49541D01*
X37184D02*
X35872D01*
X36528D01*
Y45605D01*
X37184Y46261D01*
X55148Y56228D02*
X55804Y56884D01*
Y58196D01*
X55148Y58852D01*
X52524D01*
X51868Y58196D01*
Y56884D01*
X52524Y56228D01*
X51868Y52293D02*
Y54917D01*
X54492Y52293D01*
X55148D01*
X55804Y52949D01*
Y54260D01*
X55148Y54917D01*
X41956Y68943D02*
X41300Y69599D01*
X39988D01*
X39332Y68943D01*
Y66320D01*
X39988Y65664D01*
X41300D01*
X41956Y66320D01*
X45236Y65664D02*
Y69599D01*
X43268Y67632D01*
X45892D01*
X66839Y68311D02*
X66183Y67655D01*
Y66343D01*
X66839Y65687D01*
X69463D01*
X70119Y66343D01*
Y67655D01*
X69463Y68311D01*
X66839Y69623D02*
X66183Y70279D01*
Y71591D01*
X66839Y72247D01*
X67495D01*
X68151Y71591D01*
Y70935D01*
Y71591D01*
X68807Y72247D01*
X69463D01*
X70119Y71591D01*
Y70279D01*
X69463Y69623D01*
X44966Y45685D02*
Y49621D01*
X46934D01*
X47590Y48965D01*
Y47653D01*
X46934Y46997D01*
X44966D01*
X46278D02*
X47590Y45685D01*
X51526D02*
X48902D01*
X51526Y48309D01*
Y48965D01*
X50870Y49621D01*
X49558D01*
X48902Y48965D01*
X29557Y57365D02*
X28901Y56709D01*
Y55397D01*
X29557Y54741D01*
X32180D01*
X32836Y55397D01*
Y56709D01*
X32180Y57365D01*
X28901Y61301D02*
Y58677D01*
X30869D01*
X30213Y59989D01*
Y60645D01*
X30869Y61301D01*
X32180D01*
X32836Y60645D01*
Y59333D01*
X32180Y58677D01*
X72154Y73075D02*
X76090D01*
Y71108D01*
X75434Y70452D01*
X74122D01*
X73466Y71108D01*
Y73075D01*
Y71763D02*
X72154Y70452D01*
Y67172D02*
X76090D01*
X74122Y69140D01*
Y66516D01*
X73524Y56677D02*
X72868Y56021D01*
Y54709D01*
X73524Y54053D01*
X76147D01*
X76803Y54709D01*
Y56021D01*
X76147Y56677D01*
X72868Y60612D02*
X73524Y59300D01*
X74835Y57988D01*
X76147D01*
X76803Y58644D01*
Y59956D01*
X76147Y60612D01*
X75491D01*
X74835Y59956D01*
Y57988D01*
X34453Y70041D02*
Y66105D01*
X32485D01*
X31829Y66761D01*
Y68073D01*
X32485Y68729D01*
X34453D01*
X33141D02*
X31829Y70041D01*
X30517Y66761D02*
X29861Y66105D01*
X28549D01*
X27893Y66761D01*
Y67417D01*
X28549Y68073D01*
X29205D01*
X28549D01*
X27893Y68729D01*
Y69385D01*
X28549Y70041D01*
X29861D01*
X30517Y69385D01*
X20067Y40532D02*
Y44468D01*
X22035D01*
X22691Y43812D01*
Y42500D01*
X22035Y41844D01*
X20067D01*
X21379D02*
X22691Y40532D01*
X26627Y44468D02*
X25315Y43812D01*
X24003Y42500D01*
Y41188D01*
X24659Y40532D01*
X25971D01*
X26627Y41188D01*
Y41844D01*
X25971Y42500D01*
X24003D01*
X69143Y105642D02*
X68487Y106298D01*
X67175D01*
X66519Y105642D01*
Y103018D01*
X67175Y102362D01*
X68487D01*
X69143Y103018D01*
X70455Y106298D02*
X73079D01*
Y105642D01*
X70455Y103018D01*
Y102362D01*
X56175Y98224D02*
Y94288D01*
X58799D01*
X60111D02*
X61422D01*
X60767D01*
Y98224D01*
X60111Y97567D01*
X72519Y94543D02*
X68584Y91919D01*
X72519D02*
X68584Y94543D01*
Y90607D02*
Y89295D01*
Y89951D01*
X72519D01*
X71864Y90607D01*
X22929Y70246D02*
Y66310D01*
X20962D01*
X20305Y66966D01*
Y68278D01*
X20962Y68934D01*
X22929D01*
X21618D02*
X20305Y70246D01*
X18994Y66966D02*
X18338Y66310D01*
X17026D01*
X16370Y66966D01*
Y67622D01*
X17026Y68278D01*
X16370Y68934D01*
Y69590D01*
X17026Y70246D01*
X18338D01*
X18994Y69590D01*
Y68934D01*
X18338Y68278D01*
X18994Y67622D01*
Y66966D01*
X18338Y68278D02*
X17026D01*
X19429Y81746D02*
Y77810D01*
X17461D01*
X16805Y78466D01*
Y79778D01*
X17461Y80434D01*
X19429D01*
X18117D02*
X16805Y81746D01*
X15494Y77810D02*
X12870D01*
Y78466D01*
X15494Y81090D01*
Y81746D01*
X74042Y78304D02*
X74699Y77648D01*
X76010D01*
X76666Y78304D01*
Y80927D01*
X76010Y81583D01*
X74699D01*
X74042Y80927D01*
X72731Y78304D02*
X72075Y77648D01*
X70763D01*
X70107Y78304D01*
Y78960D01*
X70763Y79615D01*
X70107Y80272D01*
Y80927D01*
X70763Y81583D01*
X72075D01*
X72731Y80927D01*
Y80272D01*
X72075Y79615D01*
X72731Y78960D01*
Y78304D01*
X72075Y79615D02*
X70763D01*
X17354Y64934D02*
X16698Y65590D01*
X15386D01*
X14730Y64934D01*
Y62310D01*
X15386Y61654D01*
X16698D01*
X17354Y62310D01*
X18666Y61654D02*
X19978D01*
X19322D01*
Y65590D01*
X18666Y64934D01*
X21945D02*
X22601Y65590D01*
X23913D01*
X24569Y64934D01*
Y62310D01*
X23913Y61654D01*
X22601D01*
X21945Y62310D01*
Y64934D01*
X15494Y76534D02*
X14838Y77190D01*
X13526D01*
X12870Y76534D01*
Y73910D01*
X13526Y73254D01*
X14838D01*
X15494Y73910D01*
X16806D02*
X17461Y73254D01*
X18773D01*
X19429Y73910D01*
Y76534D01*
X18773Y77190D01*
X17461D01*
X16806Y76534D01*
Y75878D01*
X17461Y75222D01*
X19429D01*
X60886Y85202D02*
X61542Y84546D01*
X62854D01*
X63510Y85202D01*
Y87826D01*
X62854Y88482D01*
X61542D01*
X60886Y87826D01*
X59574Y88482D02*
X58262D01*
X58918D01*
Y84546D01*
X59574Y85202D01*
X53671Y88482D02*
X56295D01*
X53671Y85858D01*
Y85202D01*
X54327Y84546D01*
X55639D01*
X56295Y85202D01*
X61584Y77557D02*
X62240Y76901D01*
X63552D01*
X64208Y77557D01*
Y80180D01*
X63552Y80836D01*
X62240D01*
X61584Y80180D01*
X60272Y80836D02*
X58960D01*
X59617D01*
Y76901D01*
X60272Y77557D01*
X56993Y80836D02*
X55681D01*
X56337D01*
Y76901D01*
X56993Y77557D01*
X54550Y113200D02*
X57774Y110943D01*
X59279Y113092D01*
X61536Y116316D02*
X60031Y114167D01*
X59387Y117821D01*
X58850Y118197D01*
X57936Y118036D01*
X57184Y116962D01*
X57345Y116048D01*
X56079Y104717D02*
X56240Y103803D01*
X57315Y103051D01*
X58229Y103212D01*
X59734Y105361D01*
X59573Y106274D01*
X58498Y107027D01*
X57584Y106866D01*
X56886Y108156D02*
X55811Y108908D01*
X56349Y108532D01*
X54091Y105308D01*
X55005Y105469D01*
X49793Y108318D02*
X51942Y106813D01*
X53071Y108425D01*
X51620Y108640D01*
X51082Y109016D01*
X50921Y109930D01*
X51674Y111005D01*
X52587Y111166D01*
X53662Y110413D01*
X53823Y109500D01*
X64845Y117306D02*
X65006Y116393D01*
X66081Y115640D01*
X66995Y115801D01*
X68499Y117951D01*
X68338Y118864D01*
X67264Y119617D01*
X66350Y119456D01*
X65652Y120745D02*
X64577Y121498D01*
X65114Y121122D01*
X62857Y117898D01*
X63771Y118059D01*
X61353Y123755D02*
X59096Y120531D01*
X61836Y121015D01*
X59687Y122520D01*
X45095Y72557D02*
X45751Y71901D01*
X47063D01*
X47719Y72557D01*
Y75180D01*
X47063Y75836D01*
X45751D01*
X45095Y75180D01*
X43784Y75836D02*
X42472D01*
X43128D01*
Y71901D01*
X43784Y72557D01*
X37880Y71901D02*
X39192Y72557D01*
X40504Y73869D01*
Y75180D01*
X39848Y75836D01*
X38536D01*
X37880Y75180D01*
Y74524D01*
X38536Y73869D01*
X40504D01*
X44822Y118982D02*
X40886D01*
Y116358D01*
X44166Y115046D02*
X44822Y114390D01*
Y113078D01*
X44166Y112422D01*
X43510D01*
X42854Y113078D01*
Y113734D01*
Y113078D01*
X42198Y112422D01*
X41542D01*
X40886Y113078D01*
Y114390D01*
X41542Y115046D01*
X38619Y110230D02*
X37963Y110885D01*
X36651D01*
X35995Y110230D01*
Y107606D01*
X36651Y106950D01*
X37963D01*
X38619Y107606D01*
X39930Y106950D02*
X41243D01*
X40587D01*
Y110885D01*
X39930Y110230D01*
X43210Y107606D02*
X43866Y106950D01*
X45178D01*
X45834Y107606D01*
Y110230D01*
X45178Y110885D01*
X43866D01*
X43210Y110230D01*
Y109573D01*
X43866Y108918D01*
X45834D01*
X35330Y113644D02*
X34674Y112988D01*
Y111676D01*
X35330Y111020D01*
X37954D01*
X38610Y111676D01*
Y112988D01*
X37954Y113644D01*
X38610Y114956D02*
Y116268D01*
Y115612D01*
X34674D01*
X35330Y114956D01*
Y118236D02*
X34674Y118892D01*
Y120204D01*
X35330Y120860D01*
X35986D01*
X36642Y120204D01*
X37298Y120860D01*
X37954D01*
X38610Y120204D01*
Y118892D01*
X37954Y118236D01*
X37298D01*
X36642Y118892D01*
X35986Y118236D01*
X35330D01*
X36642Y118892D02*
Y120204D01*
X30057Y115299D02*
X29401Y114643D01*
Y113331D01*
X30057Y112676D01*
X32680D01*
X33336Y113331D01*
Y114643D01*
X32680Y115299D01*
X33336Y116611D02*
Y117923D01*
Y117267D01*
X29401D01*
X30057Y116611D01*
X29401Y119891D02*
Y122515D01*
X30057D01*
X32680Y119891D01*
X33336D01*
X23706Y115127D02*
X23050Y114471D01*
Y113159D01*
X23706Y112503D01*
X26330D01*
X26986Y113159D01*
Y114471D01*
X26330Y115127D01*
X26986Y119063D02*
Y116439D01*
X24362Y119063D01*
X23706D01*
X23050Y118407D01*
Y117095D01*
X23706Y116439D01*
Y120375D02*
X23050Y121030D01*
Y122343D01*
X23706Y122998D01*
X26330D01*
X26986Y122343D01*
Y121030D01*
X26330Y120375D01*
X23706D01*
X36093Y75970D02*
Y72034D01*
X34125D01*
X33469Y72690D01*
Y74002D01*
X34125Y74658D01*
X36093D01*
X34781D02*
X33469Y75970D01*
X32157D02*
X30845D01*
X31501D01*
Y72034D01*
X32157Y72690D01*
X28877D02*
X28221Y72034D01*
X26910D01*
X26254Y72690D01*
Y75314D01*
X26910Y75970D01*
X28221D01*
X28877Y75314D01*
Y72690D01*
X15053Y96327D02*
X14397Y95671D01*
Y94359D01*
X15053Y93703D01*
X17676D01*
X18332Y94359D01*
Y95671D01*
X17676Y96327D01*
X18332Y100262D02*
Y97638D01*
X15709Y100262D01*
X15053D01*
X14397Y99606D01*
Y98294D01*
X15053Y97638D01*
X18332Y104198D02*
Y101574D01*
X15709Y104198D01*
X15053D01*
X14397Y103542D01*
Y102230D01*
X15053Y101574D01*
X29588Y110385D02*
X28932Y111041D01*
X27620D01*
X26964Y110385D01*
Y107761D01*
X27620Y107105D01*
X28932D01*
X29588Y107761D01*
X33523Y107105D02*
X30900D01*
X33523Y109729D01*
Y110385D01*
X32867Y111041D01*
X31555D01*
X30900Y110385D01*
X34835Y107105D02*
X36147D01*
X35491D01*
Y111041D01*
X34835Y110385D01*
X27033Y76224D02*
X23098D01*
Y78192D01*
X23753Y78848D01*
X25065D01*
X25721Y78192D01*
Y76224D01*
Y77536D02*
X27033Y78848D01*
Y80159D02*
Y81471D01*
Y80815D01*
X23098D01*
X23753Y80159D01*
X27033Y83439D02*
Y84751D01*
Y84095D01*
X23098D01*
X23753Y83439D01*
X20969Y86624D02*
Y82688D01*
X19001D01*
X18346Y83344D01*
Y84656D01*
X19001Y85312D01*
X20969D01*
X19657D02*
X18346Y86624D01*
X17033D02*
X15722D01*
X16378D01*
Y82688D01*
X17033Y83344D01*
X11130Y86624D02*
X13754D01*
X11130Y84000D01*
Y83344D01*
X11786Y82688D01*
X13098D01*
X13754Y83344D01*
X14730Y45754D02*
Y49690D01*
X16698D01*
X17354Y49034D01*
Y47722D01*
X16698Y47066D01*
X14730D01*
X16042D02*
X17354Y45754D01*
X18666D02*
X19978D01*
X19322D01*
Y49690D01*
X18666Y49034D01*
X21945D02*
X22601Y49690D01*
X23913D01*
X24569Y49034D01*
Y48378D01*
X23913Y47722D01*
X23257D01*
X23913D01*
X24569Y47066D01*
Y46410D01*
X23913Y45754D01*
X22601D01*
X21945Y46410D01*
X11130Y88698D02*
Y92634D01*
X13098D01*
X13754Y91978D01*
Y90666D01*
X13098Y90010D01*
X11130D01*
X12442D02*
X13754Y88698D01*
X15066D02*
X16378D01*
X15722D01*
Y92634D01*
X15066Y91978D01*
X20313Y88698D02*
Y92634D01*
X18345Y90666D01*
X20969D01*
M02*
