M48
;Layer_Color=9474304
;FILE_FORMAT=2:5
INCH,TZ
;TYPE=PLATED
T1F00S00C0.00787
T2F00S00C0.01000
T3F00S00C0.01500
;TYPE=NON_PLATED
T5F00S00C0.02559
%
T01
X17333Y22369
Y28369
X66833Y23869
X67340Y29869
X43500Y29500
X41224Y29404
X41167Y36833
X43167
X10384Y42500
X22505Y73500
X36259Y78250
X41341Y78333
X46000Y78000
X41167Y104333
X39000Y105449
X48000Y110500
X47500Y115500
X51000
Y119500
Y123000
X46500
X58000
X64500Y110000
X69500Y113500
X17500Y123000
X13000
X12500Y119000
X8500Y123000
X74500
Y118000
Y113500
Y109500
X70000Y110000
T02
X74500Y24000
X79500
X27306Y6500
X21618Y53500
X13926Y65028
X21362Y88000
X35500Y86000
Y90000
X40435Y90126
X45000Y90345
Y85500
Y95500
X40000
X35000
X53250Y101000
X40117Y117670
X37142Y117908
X11500Y102500
X53836Y62336
X74866Y50376
X74500Y33000
X79500
T03
X13684Y61500
X14181Y74700
X14081Y87661
X16865Y107663
Y111461
X20202Y114798
X67000Y124500
X69022Y82512
X67000Y79000
X68500Y76000
X56992Y82757
X45608Y70829
X47105Y60547
X53836Y47653
X51538Y37350
X69000Y42000
X29190Y64493
X75000Y64000
X74500Y75000
X74000Y101500
X71000Y42000
T05
X30805Y29128
X53561
M30
